<svg xmlns="http://www.w3.org/2000/svg" viewBox="0 0 1024 1024">
    <path fill="#98a6ad" d="M512.55 136.924c-308.986-0.432-500.616 237.034-501.020 460.32-0.036 20.378 17.066 45.15 38.496 45.096 455.718-1.126 457.336-0.486 916.242 0 26.52 0.028 40.356-24.482 40.148-44.548-2.448-234.706-202.034-460.464-493.868-460.87zM510.902 225.47c297.164 1.958 403.738 242.56 404.224 320.63 0.014 2.466 1.1 7.15 1.1 7.15h-63.796c0 0-1.442-0.618-2.202-9.35-6.414-73.808-116.938-246.582-334.928-249.684-217.99-3.104-334.008 153.372-344.278 248.582-0.712 6.596-2.75 9.9-2.75 9.9h-68.196c0 0 2.538-3.070 2.75-9.35 2.38-70.766 110.91-319.84 408.074-317.88zM513.1 379.46c183.548 1.388 245.472 134.39 247.484 171.038 0.13 2.376 1.1 2.75 1.1 2.75l-78.094 0.55c-0.13-0.090-0.768 0.066-1.65-1.65-15.572-30.278-66.996-108.164-169.94-107.244-102.942 0.922-150.040 63.012-174.888 104.494-1.788 2.986-2.75 4.95-2.75 4.95l-78.094-1.1c-0.158-0.178-0.616-1.106-0.55-2.75 1.462-37.048 73.834-172.428 257.382-171.038zM437.754 690.188v140.242h32.448v-50.048c0-9.182 1.63-16.288 5.5-21.448 3.868-5.22 9.178-7.7 15.95-7.7 2.782 0 5.524 0.45 7.7 1.65 2.176 1.14 3.68 2.85 4.95 4.95 0.966 1.562 1.836 3.85 2.202 7.15 0.424 3.302 0.55 9.326 0.55 18.148v47.298h32.448v-61.596c0-13.62-2.694-24.206-8.798-31.348-6.044-7.14-15.222-10.448-26.948-10.448-6.65 0-12.648 1.028-18.148 3.85-5.5 2.76-10.502 7.32-15.4 13.198v-53.898h-32.448zM829.88 690.188v26.398h32.448v-26.398h-32.448zM89.626 727.036c-7.012 0-13.886 0.2-20.9 1.1-7.012 0.84-13.948 2.17-20.9 3.85v24.748c5.14-2.76 10.514-4.668 16.498-6.048s12.846-2.202 19.798-2.202c8.584 0 14.65 0.9 18.698 3.3 4.052 2.342 6.050 6.448 6.050 11.55v2.202h-19.25c-17.532 0-30.278 2.73-38.496 8.25-8.16 5.52-12.1 14.578-12.1 26.398 0 9.722 3.372 17.528 9.9 23.65 6.588 6.060 14.778 8.798 25.3 8.798 7.8 0 14.358-1.090 19.8-3.85 5.442-2.82 10.496-7.628 14.85-13.75v15.4h32.998v-57.746c0-16.14-4.49-28.058-12.65-35.198-8.1-7.202-21.282-10.448-39.598-10.448zM370.658 727.036c-7.072 0-13.258 1.028-18.698 3.85-5.44 2.76-10.376 7.32-14.848 13.198v-14.85h-32.448v139.14h32.448v-52.796c4.474 5.88 9.408 10.378 14.848 13.198 5.44 2.76 11.626 3.85 18.698 3.85 12.512 0 22.758-5.010 30.798-14.85 8.038-9.9 12.098-22.404 12.098-37.948s-4.060-28.106-12.098-37.948c-8.040-9.9-18.286-14.85-30.798-14.85zM618.144 727.036c-17.53 0-31.334 4.388-41.248 13.75-9.852 9.362-14.298 22.486-14.298 39.048s4.446 29.688 14.298 39.048c9.914 9.362 23.716 13.75 41.248 13.75 17.47 0 31.454-4.388 41.248-13.75 9.852-9.362 14.298-22.486 14.298-39.048s-4.446-29.688-14.298-39.048c-9.792-9.362-23.778-13.75-41.248-13.75zM763.884 727.036c-6.65 0-12.648 1.028-18.148 3.85-5.5 2.76-10.502 7.32-15.4 13.198v-14.85h-32.448v101.192h32.448v-50.048c0-9.182 1.63-16.288 5.5-21.448 3.868-5.22 9.178-7.7 15.948-7.7 2.78 0 5.524 0.45 7.7 1.65 2.176 1.14 3.68 2.85 4.95 4.95 0.966 1.562 1.836 3.85 2.202 7.15 0.424 3.302 0.55 9.448 0.55 18.148v47.298h32.448v-61.596c0-13.62-2.694-24.206-8.798-31.348-6.044-7.14-15.222-10.448-26.948-10.448zM944.822 727.036c-18.316 0-32.562 4.388-42.898 13.75-10.336 9.302-15.948 22.426-15.948 39.048 0 16.62 5.612 29.688 15.948 39.048 10.336 9.302 24.582 13.75 42.898 13.75 5.258 0 10.202-0.14 15.4-1.1 5.258-0.9 10.87-2.538 15.948-4.4v-26.398c-3.868 2.94-8.604 5.1-13.198 6.6-4.534 1.5-9.222 2.202-14.298 2.202-9.068 0-15.822-2.48-20.9-7.7-5.018-5.28-7.7-12.578-7.7-21.998s2.682-16.778 7.7-21.998c5.078-5.28 11.832-7.7 20.9-7.7 4.776 0 9.336 0.76 13.75 2.202 4.472 1.44 9.336 3.6 13.75 6.6v-26.398c-5.14-1.86-10.75-3.5-15.948-4.4-5.14-0.96-10.080-1.1-15.4-1.1zM171.020 729.236v61.596c0 13.62 3.242 24.206 9.348 31.348 6.168 7.14 14.67 10.448 26.398 10.448 6.588 0 12.71-1.090 18.148-3.85 5.502-2.82 11.052-7.32 15.95-13.198v14.85h32.448v-101.192h-32.448v50.048c0 9.182-2.182 16.288-6.050 21.448s-9.18 7.7-15.95 7.7c-2.782 0-5.524-0.51-7.7-1.65-2.116-1.14-3.62-2.85-4.95-4.95-1.026-1.62-1.776-4.158-2.2-7.7-0.424-3.6-0.55-9.5-0.55-17.6 0-2.76-0.060-8.278 0-16.5 0.060-8.282 0-14.888 0-20.35v-10.448h-32.448zM829.88 729.236v101.192h32.448v-101.192h-32.448zM358.56 750.134c6.952 0 12.322 2.658 15.95 7.7 3.688 5.042 5.5 12.398 5.5 21.998 0 9.602-1.812 16.956-5.5 21.998-3.628 5.042-8.998 7.7-15.95 7.7s-12.202-2.658-15.95-7.7c-3.688-5.1-5.5-12.456-5.5-21.998s1.812-16.956 5.5-21.998c3.748-5.1 8.998-7.7 15.95-7.7zM618.144 750.134c7.072 0 12.75 2.538 16.5 7.7 3.746 5.1 5.5 12.34 5.5 21.998 0 9.66-1.752 16.838-5.5 21.998-3.746 5.1-9.426 7.7-16.5 7.7-7.194 0-12.692-2.6-16.5-7.7-3.746-5.16-5.5-12.34-5.5-21.998 0-9.66 1.752-16.9 5.5-21.998 3.808-5.16 9.306-7.7 16.5-7.7zM91.826 784.782h17.050v3.85c0 6.542-1.88 12.118-6.050 16.5-4.17 4.322-9.294 6.048-15.4 6.048-4.898 0-8.768-1.020-11.55-3.3-2.72-2.342-4.4-5.27-4.4-9.35 0-4.44 2.114-8.168 5.498-10.448 3.446-2.28 8.078-3.3 14.85-3.3z"/>
</svg>