<svg xmlns="http://www.w3.org/2000/svg" viewBox="0 0 1024 1024">
  <path d="m 237.97367,177.46064 0,97.60176 93.44617,0 0,-97.60176 -93.44617,0 z m 111.24977,0 0,97.60176 93.44617,0 0,-97.60176 -93.44617,0 z m 226.15125,0 0,97.60176 93.44775,0 0,-97.60176 -93.44775,0 z m 112.45289,0 0,97.60176 93.44775,0 0,-97.60176 -93.44775,0 z m 114.88109,115.02599 0,97.60176 93.44774,0 0,-97.60333 -93.44774,0 z m -678.4114,1.20465 0,97.60176 93.44773,0 0,-97.60176 -93.44773,0 z m 112.4717,0 0,97.60176 93.44775,0 0,-97.60176 -93.44617,0 z m 113.67798,0 0,97.60176 93.44617,0 0,-97.60176 -93.44617,0 z m 112.45289,0 0,97.60176 93.44774,0 0,-97.60176 -93.44617,0 z m 111.25134,0 0,97.60176 93.44775,0 0,-97.60176 -93.44775,0 z m 114.87952,0 0,97.60176 93.44775,0 0,-97.60176 -93.44775,0 z m -452.26173,116.25106 0,97.60175 93.44775,0 0,-97.60332 -93.44617,0 z m 112.45447,0 0,97.60175 93.44617,0 0,-97.60332 -93.44617,0 z m 113.6764,0 0,97.60175 93.44774,0 0,-97.60332 -93.44617,0 z m 112.47485,0 0,97.60175 93.44775,0 0,-97.60332 -93.44775,0 z m 227.33398,0 0,97.60175 93.44774,0 0,-97.60332 -93.44774,0 z m -679.61452,1.20464 0,97.60334 93.44617,0 0,-97.60334 -93.44774,0 z m 565.93655,0 0,97.60334 93.44775,0 0,-97.60334 -93.44775,0 z m 0,115.02756 0,97.60334 93.44775,0 0,-97.60334 -93.44775,0 z m -451.05703,1.20466 0,97.60333 93.44617,0 0,-97.60333 -93.44617,0 z m 112.47328,0 0,97.60333 93.44617,0 0,-97.60333 -93.44617,0 z m 112.45289,0 0,97.60333 93.44774,0 0,-97.60333 -93.44617,0 z m 112.47485,0 0,97.60333 93.44775,0 0,-97.60333 -93.44775,0 z m -224.92774,117.4557 0,97.60334 93.44617,0 0,-97.60334 -93.44617,0 z m 224.92774,0 0,97.60334 93.44775,0 0,-97.60334 -93.44775,0 z m -112.47485,1.20466 0,97.60332 93.44774,0 0,-97.60332 -93.44617,0 z m 0,116.24948 0,97.60333 93.44774,0 0,-97.60333 -93.44617,0 z"
     style="fill:#98a6ad" />
</svg>
