<svg xmlns="http://www.w3.org/2000/svg" viewBox="0 0 1024 1024">
    <path fill="#98a6ad" d="M166.882 252.106l0.968 83.404c0 0-18.868-0.916-25.226 6.726-8.646 10.394-5.176 37.018-5.176 37.018l30.402-4.474 0.782 93.054-26.508 2.926 2.534 375.948-109.63 18.408-3.41-376.322-27.668 5.942 0.782-92.662 27.478-5.066c0 0-10.558-64.94 12.574-100.842 25.634-39.784 122.094-44.056 122.094-44.056zM314.338 224.298l-110.284 19.18 1.064 83.646 110.284-19.18-1.064-83.646zM307.946 231.758l1.064 70.858-97.498 16.516-1.064-70.858 97.498-16.516zM316.472 348.97l-110.284 18.648 3.73 466.714 109.752-19.18-3.198-466.18zM309.544 356.962l2.664 452.862-96.432 18.648-3.73-453.394 97.498-18.114zM355.816 341.354l103.6-16.42 0.782 35.184c0 0 8.264-21.822 16.028-28.93 8.682-7.95 18.654-12.082 29.322-14.856 13.364-3.478 36.358-5.082 36.358-5.082v91.48c0 0-33.572 0.186-46.132 11.728-14.404 13.24-19.020 20.192-22.676 38.702-2.478 12.558-3.128 19.548-3.128 19.548v316.666l-109.074 19.158zM593.974 177.51l110.742-19.346 0.774 123.818 27.55-4.1 1.16 91.394-27.086 4.798c0 0-0.048 142.494 0.61 230.76 0.018 2.312-0.108 16.46 0.164 22.138 0.398 8.314 2.38 16.066 6.344 22.292 4 6.28 24.842 0.852 24.842 0.852l-1.626 94.644c0 0-51.288 10.442-77.318 12.284-9.006 0.636-18.492 2.33-27.084-0.442-7.866-2.538-13.552-5.476-20.35-14.164-14.158-18.1-13.076-39.932-13.076-39.932l-3.404-310.94-27.86 5.804-0.31-91.318 26.466-3.87zM761.528 270.602l249.676-41.032-0.774 90.58-130.838 298.45 133.548-22.066 1.16 98.322-251.224 42.968-0.774-97.934 128.902-299.226-129.288 22.064zM310.98 355.938l-99.376 18.186 3.36 455.174 98.894-18.706-2.88-454.654zM304.74 363.732l2.402 441.666-86.894 18.186-3.36-442.184 87.854-17.668zM308.632 230.88l-99.932 16.726 0.966 72.938 99.934-16.726-0.964-72.938zM302.84 237.384l0.964 61.79-88.348 14.402-0.966-61.79 88.348-14.402z"/>
</svg>