<svg xmlns="http://www.w3.org/2000/svg" viewBox="0 0 1024 1024">
    <path fill="#000" d="M499.14 75.492c-40.266 0.278-81.17 6.364-121.656 18.82-95.68 29.438-173.67 89.75-226.556 166.844l65.396 37.398c43.742-56.298 105.248-100.132 179.524-122.324 33.786-10.094 67.934-15.008 101.538-15.234 79.65-0.534 156.29 25.378 218.226 71.572l61.058-55.832c-76.794-65.076-175.1-101.948-277.532-101.244zM496.462 232.904c-26.678 0.18-53.774 4.11-80.594 12.178-55.43 16.67-101.902 48.616-136.124 89.764l54.702 31.284c25.876-30.318 60.022-53.832 100.296-66.442 21.57-6.754 43.386-9.918 64.81-9.794 41.31 0.236 81.208 12.64 115.3 34.796l45.35-41.464c-47.394-32.616-104.534-50.718-163.742-50.318zM662.736 661.89c-25.956 30.706-60.328 54.54-100.954 67.262-68.646 21.496-139.63 6.462-193.238-34.27l-46.618 36.506c70.394 55.302 166.212 76.61 258.754 48.78 56.332-16.942 103.414-49.668 137.78-91.784l-55.726-26.496zM785.538 720.246c-43.892 57.882-106.336 103-182.058 125.62-121.784 36.38-248.072 5.644-337.642-70.584l-58.112 45.508c107.918 103.338 266.18 146.75 418.552 99.87 96.188-29.594 174.49-90.388 227.384-168.072l-68.122-32.344zM103.386 382.5h72.89v41.794c7.698-11.334 17.618-23.196 23.832-27.628 6.212-4.432 16.128-12.618 42.456-15.468 26.33-2.85 65.192 8.942 84.662 29.486 19.466 20.544 30.436 55.334 30.436 92.032 0 37.686-9.81 67.016-29.428 87.984-19.618 20.828-49.56 33.71-77.48 33.71-13.282 0-25.354-2.48-36.218-7.438-10.716-4.958-26.972-15.928-38.894-27.972l2.468 211.226h-72.252l-2.468-417.724zM176.194 500.166c0 25.362 1.654 44.132 12.368 56.318 10.716 12.044 23.77 18.066 39.164 18.066 14.79 0 27.090-5.526 36.9-16.576 9.81-11.192 14.714-30.706 14.714-56.064 0-23.66-5.056-39.996-15.166-51.47-10.11-11.476-22.638-17.214-37.578-17.214-15.544 0-28.448 5.668-38.71 17.002-10.264 11.192-11.69 27.84-11.69 49.942zM384.852 497.098c0-19.834 5.97-35.11 15.62-54.86 9.652-19.75 25.142-35.042 43.82-46.208s39.61-17.396 63.154-17.396c36.372 0 72.348 14.826 95.59 37.068 23.24 22.102 34.86 57.49 34.86 91.354 0 34.146-11.77 62.482-35.316 85.008-23.392 22.386-59.068 29.876-94.684 29.876-22.034 0-43.086-4.676-63.158-14.026-19.92-9.35-33.854-26.726-44.266-44.722-10.414-18.134-15.62-40.166-15.62-66.094zM457.452 502.756c0 22.386 5.658 39.528 16.978 51.43s16.638 19.086 33.238 19.086c16.6 0 24.312-5.95 35.48-17.85 11.318-11.9 16.978-29.186 16.978-51.856 0-22.102-5.736-39.104-16.978-51.004-11.244-11.902-18.88-17.85-35.48-17.85s-21.918 4.716-33.238 16.618c-11.32 11.902-16.978 29.046-16.978 51.43zM925.544 621.054h-76.594v-41.794c-4.886 12.178-3.114 18.576-24.114 31.282-13.13 7.082-26.178 13.144-42.174 13.144-27.918 0-65.192-10.272-84.662-30.816-19.466-20.544-30.436-55.336-30.436-92.032 0-37.688 9.81-67.014 29.428-87.984 19.62-20.828 49.562-33.71 77.48-33.71 13.28 0 25.354 2.48 36.22 7.438 10.716 4.958 26.972 15.928 38.894 27.972l-2.47-222.336h75.956l2.47 428.834zM849.030 503.392c0-25.362-1.654-44.132-12.37-56.318-10.716-12.044-23.77-18.066-39.164-18.066-14.79 0-27.090 5.526-36.9 16.576-9.81 11.192-14.714 30.704-14.714 56.064 0 23.66 5.056 39.994 15.168 51.47 10.11 11.476 22.636 17.214 37.578 17.214 15.544 0 28.448-5.668 38.71-17.002 10.264-11.192 11.69-27.842 11.69-49.942z"/>
</svg>