<svg xmlns="http://www.w3.org/2000/svg" viewBox="0 0 1024 1024">
  <path fill="#98a6ad" d="M 673.08008 124.26953 L 673.08008 134.91602 C 803.11898 191.74016 896.79774 314.71249 910.24609 460.56445 C 913.39182 454.89522 916.40512 449.14734 919.30859 443.33398 C 899.90471 299.396 803.93069 179.32628 673.08008 124.26953 z M 350.71289 124.31055 C 218.69216 179.89936 122.18978 301.67268 104.05469 447.36328 C 106.36247 451.87109 108.73892 456.33745 111.19531 460.75781 C 124.65988 313.95134 219.40522 190.30075 350.71289 133.91016 L 350.71289 124.31055 z M 350.71289 225.42578 C 256.08127 279.91228 192.48828 381.11913 192.48828 496.98438 C 192.48828 524.20853 196.00166 550.62568 202.60156 575.81641 C 211.09842 583.52154 219.87936 590.92709 228.95312 597.98438 C 217.2731 566.34357 210.89648 532.19252 210.89648 496.57227 C 210.89548 391.17352 266.68108 298.63731 350.71289 246.08203 L 350.71289 225.42578 z M 673.08008 226.33984 L 673.08008 246.64648 C 756.60114 299.29905 811.97656 391.55532 811.97656 496.57227 C 811.97656 531.55576 805.81276 565.11932 794.52734 596.27734 C 803.25271 589.40724 811.71184 582.22286 819.89648 574.74805 C 826.31905 549.88002 829.73828 523.82547 829.73828 496.98438 C 829.73828 381.75959 766.84256 281.03694 673.08008 226.33984 z M 362.86914 314.36328 C 308.80979 357.1886 274.19531 422.91365 274.19531 496.62109 C 274.19531 562.17262 301.57638 621.4069 345.66406 663.8418 C 370.73497 673.46214 396.88694 680.94168 423.88477 686.08008 C 351.1958 653.40469 300.63867 581.16999 300.63867 497.24609 C 300.63867 433.55433 329.76679 376.59281 375.57031 338.53516 C 370.67126 330.89039 366.40698 322.81601 362.86914 314.36328 z M 660.54688 315.30664 C 656.93534 323.78278 652.56795 331.86223 647.58398 339.51562 C 692.72313 377.56835 721.37109 434.09181 721.37109 497.24414 C 721.37109 580.97835 671.04194 653.07734 598.61523 685.85742 C 625.72296 680.62418 651.97416 673.04581 677.125 663.29492 C 720.88174 620.90066 748.0293 561.89057 748.0293 496.62109 C 748.0293 423.45309 713.92311 358.1529 660.54688 315.30664 z M 409.05273 376.1582 C 374.0326 404.95144 351.73828 448.28781 351.73828 496.76758 C 351.73828 583.45652 422.99463 653.73242 510.89648 653.73242 C 598.79083 653.73242 670.05078 583.45652 670.05078 496.76758 C 670.05078 448.74475 648.15575 405.78153 613.70508 376.98828 C 604.71996 384.21923 594.91638 390.48649 584.47266 395.69141 C 616.46819 418.27721 637.3418 455.21168 637.3418 496.97656 C 637.3418 565.73406 580.82603 621.47656 511.10547 621.47656 C 441.38616 621.47656 384.86719 565.73406 384.86719 496.97656 C 384.86719 454.9247 406.02969 417.76804 438.40234 395.22656 C 427.90492 389.9108 418.05657 383.52585 409.05273 376.1582 z M 510.46875 412.79297 C 463.47137 412.79297 425.37305 450.36775 425.37305 496.7168 C 425.37305 543.06708 463.47137 580.64062 510.46875 580.64062 C 557.46488 580.64062 595.5625 543.06831 595.5625 496.7168 C 595.5625 450.36775 557.46488 412.79297 510.46875 412.79297 z M 585.29297 769.51367 C 561.78109 769.51367 533.83203 779.19677 533.83203 825.48438 C 533.83203 871.77017 561.782 881.45508 585.29297 881.45508 C 596.96612 881.45508 608.97005 878.33589 620.47852 873.74219 L 620.47852 849.28516 C 608.47692 855.02786 598.28415 857.16211 586.93945 857.16211 C 573.94977 857.16211 562.11328 851.41597 562.11328 825.48438 C 562.11328 799.54917 573.94977 793.80469 586.93945 793.80469 C 598.28506 793.80469 608.47692 795.94089 620.47852 801.68359 L 620.47852 777.22656 C 608.97096 772.63186 596.96612 769.51367 585.29297 769.51367 z M 490.92383 769.8418 C 469.7129 769.8418 450.31055 779.85306 450.31055 803.81836 C 450.31055 844.68936 500.78711 832.86945 500.78711 847.96875 C 500.78711 854.37075 493.06044 857.16211 485.49609 857.16211 C 473.32981 857.16211 461.98345 853.05878 451.625 844.52148 L 451.625 870.94922 C 461.32655 877.67912 473.98559 881.61719 489.60742 881.61719 C 510.98302 881.61719 529.06641 868.81779 529.06641 849.12109 C 529.06641 805.46009 478.58984 817.11462 478.58984 803.32422 C 478.58984 796.10292 488.12471 794.13477 495.03125 794.13477 C 503.25249 794.13477 511.96684 796.92487 520.51562 802.01367 L 520.51562 777.39258 C 511.96774 772.79698 501.61072 769.8418 490.92383 769.8418 z M 35.341797 770.82422 L 35.341797 835.33398 C 35.341797 865.20738 51.126938 881.61719 79.900391 881.61719 C 108.67384 881.61719 124.45898 865.20738 124.45898 835.33398 L 124.45898 770.82422 L 112.61719 770.82422 L 112.61719 835.98828 C 112.61719 859.46048 101.93108 870.78516 79.900391 870.78516 C 57.867887 870.78516 47.179687 859.45948 47.179688 835.98828 L 47.179688 770.82422 L 35.341797 770.82422 z M 132.34375 770.82422 L 132.34375 880.30469 L 200.25 880.30469 L 200.25 868.81641 L 144.18164 868.81641 L 144.18164 770.82422 L 132.34375 770.82422 z M 169.66211 770.82422 L 169.66211 782.31641 L 208.46875 782.31641 L 208.46875 880.30469 L 220.30469 880.30469 L 220.30469 782.31641 L 258.94531 782.31641 L 258.94531 770.82422 L 169.66211 770.82422 z M 264.03516 770.82422 L 264.03516 880.30469 L 275.87305 880.30469 L 275.87305 836.15234 L 303.82422 836.15234 L 332.43555 880.30469 L 346.41211 880.30469 L 316.32031 834.34766 C 321.41719 833.36126 341.47656 827.78117 341.47656 802.66797 C 341.47656 781.65977 327.99389 770.82422 304.31641 770.82422 L 264.03516 770.82422 z M 394.08594 770.82422 L 350.34961 880.30469 L 363.17383 880.30469 L 376.32812 846.16406 L 423.68164 846.16406 L 436.83594 880.30469 L 449.49609 880.30469 L 405.92383 770.82422 L 394.08594 770.82422 z M 629.02344 770.82422 L 629.02344 880.30469 L 657.30469 880.30469 L 657.30469 837.13672 L 692.49414 837.13672 L 692.49414 880.30469 L 720.77148 880.30469 L 720.77148 770.82422 L 692.49414 770.82422 L 692.49414 813.99805 L 657.30469 813.99805 L 657.30469 770.82422 L 629.02344 770.82422 z M 766.80273 770.82422 L 723.23242 880.30469 L 753.65039 880.30469 L 762.19922 854.04492 L 798.04297 854.04492 L 806.5918 880.30469 L 837.01172 880.30469 L 793.44141 770.82422 L 766.80273 770.82422 z M 839.56445 770.82422 L 839.56445 880.30469 L 916.51562 880.30469 L 916.51562 854.86328 L 867.8457 854.86328 L 867.8457 770.82422 L 839.56445 770.82422 z M 921.60352 770.82422 L 921.60352 880.30469 L 998.55273 880.30469 L 998.55273 854.86328 L 949.88477 854.86328 L 949.88477 770.82422 L 921.60352 770.82422 z M 275.87305 781.98828 L 303.66016 781.98828 C 326.67983 781.98828 329.64063 793.47418 329.64062 803.48828 C 329.64062 813.50318 326.67983 824.99414 303.66016 824.99414 L 275.87305 824.99414 L 275.87305 781.98828 z M 400.00391 784.7793 L 419.24219 834.83984 L 380.76758 834.83984 L 400.00391 784.7793 z M 780.12109 799.22266 L 791.13867 833.19922 L 768.94141 833.19922 L 780.12109 799.22266 z "/>
</svg>