<svg xmlns="http://www.w3.org/2000/svg" viewBox="0 0 1024 1024">
  <path d="m 127.44159,140.65851 0,753.7759 771.34281,0 0,-753.7759 -771.34281,0 z m 8.12907,7.90906 751.83589,0 0,734.79323 -751.83589,0 0,-734.79323 z m 632.35348,470.61744 c -6.58734,0.19462 -12.94319,0.8919 -18.69432,1.58304 -24.03129,2.88717 -44.29725,35.19616 -44.29725,35.19616 l 0,-33.22081 -61.77269,0 -0.40629,238.86711 61.36481,-0.79076 c 0,0 1.42676,-97.26566 1.62676,-149.09521 0.0787,-21.60318 7.62355,-29.77276 16.66284,-35.19616 15.39199,-9.23924 28.01551,-10.44683 40.64059,-8.30597 27.27693,4.62652 29.26116,24.51947 29.26116,24.51947 l 0,168.07787 63.80416,0.79076 0,-173.61468 c 0,0 -3.79209,-31.99791 -23.56987,-48.24818 -21.91634,-18.00495 -44.85787,-21.14957 -64.61675,-20.56417 z m -265.78349,0.39384 c -101.61328,0.24213 -97.12985,76.32604 -97.12985,76.32604 0,0 0.31968,16.37287 12.59831,33.61465 10.10543,14.19064 19.33527,17.39963 30.88635,21.35493 29.93517,10.2522 56.50344,15.56679 87.3756,25.70559 8.12749,2.66803 16.00931,15.11472 15.03609,26.49788 -0.14803,1.73169 -0.65983,3.73156 -1.21888,5.5368 -0.56063,1.80525 -1,3.74229 -2.03306,5.53681 -2.06455,3.58903 -5.43932,6.83633 -9.75267,9.88747 -7.70702,5.45252 -14.85813,7.68839 -24.38403,7.90906 -3.57635,0.0812 -7.36372,-0.16397 -10.97314,-0.79075 -7.21726,-1.25356 -14.42349,-3.84956 -20.7258,-7.51369 -3.15115,-1.83129 -5.87396,-4.00127 -8.53378,-6.32755 -7.42986,-6.50072 -13.41091,-26.10097 -13.41091,-26.10097 l -63.39786,-0.39538 c 0,0 3.91177,23.33334 8.94165,32.82544 6.20309,11.71111 15.13687,21.08674 25.60292,28.47476 12.52115,8.83773 27.33047,15.49477 42.67207,17.40116 15.99198,1.98607 32.64538,2.55922 46.3303,1.97841 3.24092,-0.13792 6.93852,-0.49345 11.37943,-1.18613 4.4409,-0.69267 9.45818,-1.8129 14.63136,-3.16454 5.17161,-1.35164 10.41409,-3.02509 15.85026,-5.14143 27.16984,-10.57555 54.68771,-31.32361 53.2389,-68.81235 -1.42676,-36.84969 -28.51314,-51.78664 -47.14132,-59.32025 -27.90684,-11.28661 -69.89859,-16.56749 -89.40708,-26.49788 -4.35115,-2.21441 -14.68649,-7.49682 -10.56527,-24.51946 4.87555,-20.14734 23.07224,-22.38321 37.79495,-22.54106 45.9681,-0.49651 41.85947,41.12988 41.85947,41.12988 l 60.5538,-1.18613 c 0,0 8.03615,-80.94795 -106.06993,-80.67671 z m -264.1583,2.76917 -76.80877,0.39538 76.80877,119.43279 -78.43395,119.43278 74.37099,-0.39537 41.45318,-68.81235 39.01383,69.20772 75.18359,0 -78.84183,-119.03894 79.24655,-120.22507 -75.58988,0 -40.2343,71.97536 -36.16976,-71.97536 z"
     style="fill:#98a6ad" />
</svg>
